<svg width="202" height="26" viewBox="0 0 202 26" fill="none" xmlns="http://www.w3.org/2000/svg">
<g clip-path="url(#clip0_119_4511)">
<path d="M141.737 25.8902H188.946C190.66 25.8902 192.357 25.5557 193.941 24.9057C195.525 24.2557 196.964 23.3029 198.176 22.1019C199.389 20.9008 200.35 19.475 201.006 17.9058C201.662 16.3365 202 14.6546 202 12.9561C202.003 11.2557 201.667 9.57144 201.013 7.99966C200.358 6.42789 199.397 4.99945 198.184 3.79608C196.972 2.59271 195.532 1.63802 193.946 0.986648C192.361 0.335275 190.662 -2.45067e-06 188.946 0L141.737 0C140.021 -2.45067e-06 138.321 0.335275 136.736 0.986648C135.151 1.63802 133.711 2.59271 132.498 3.79608C131.286 4.99945 130.325 6.42789 129.67 7.99966C129.015 9.57144 128.68 11.2557 128.682 12.9561C128.682 16.3864 130.058 19.6763 132.506 22.1019C134.954 24.5275 138.275 25.8902 141.737 25.8902ZM7.46178 25.9268H13.2243V5.06532H20.6861V0H0V5.05068H7.46178V25.9268ZM28.2218 25.9268H33.9843V6.03885H34.0582L40.6704 25.9122H45.1031L51.9369 6.03885H52.0108V25.9122H57.7734V0H49.0926L43.0345 16.9088H42.9606L36.9395 0H28.2218V25.9268ZM65.8558 0.0878378H74.4996C76.512 0.0909023 78.5166 0.336705 80.469 0.81982C82.2471 1.23774 83.9226 2.00433 85.3967 3.07432C86.8225 4.13649 87.9702 5.52213 88.7435 7.11487C89.6176 9.00715 90.0398 11.0736 89.9772 13.1537C90.0173 15.0701 89.6076 16.9694 88.7804 18.7021C88.0102 20.2614 86.9059 21.6353 85.5445 22.728C84.151 23.835 82.5595 24.6719 80.8532 25.1948C79.0497 25.7622 77.1676 26.0463 75.2753 26.0366H65.8558V0.0878378ZM71.6183 20.7297H74.5735C75.8164 20.7381 77.0561 20.603 78.2674 20.3271C79.3483 20.1098 80.3705 19.6682 81.2669 19.0315C82.1225 18.39 82.803 17.5472 83.2469 16.5794C83.7656 15.4086 84.0178 14.1391 83.9857 12.8609C84.0076 11.7156 83.7544 10.5816 83.2469 9.55237C82.7861 8.64028 82.1216 7.84422 81.3039 7.22466C80.454 6.5993 79.4946 6.13521 78.4743 5.85586C77.3489 5.54408 76.1853 5.38888 75.0167 5.39471H71.6183V20.7297ZM98.3256 0.0878378H108.078C109.222 0.0883907 110.365 0.16911 111.498 0.329392C112.573 0.467342 113.615 0.789326 114.579 1.28097C115.479 1.74368 116.243 2.42965 116.795 3.27196C117.408 4.29981 117.704 5.4832 117.645 6.67568C117.696 8.00356 117.257 9.30438 116.411 10.3356C115.548 11.3264 114.41 12.0441 113.138 12.3998V12.4437C113.956 12.5594 114.75 12.8067 115.488 13.1757C116.169 13.5146 116.782 13.9735 117.298 14.5298C117.808 15.087 118.202 15.7388 118.458 16.4476C118.733 17.1982 118.87 17.9915 118.864 18.79C118.908 19.9927 118.6 21.1824 117.977 22.2157C117.398 23.115 116.613 23.8672 115.687 24.4116C114.713 24.9907 113.646 25.3993 112.533 25.6194C111.384 25.8633 110.213 25.986 109.038 25.9854H98.3256V0.0878378ZM104.088 10.4454H108.262C108.705 10.4478 109.146 10.3986 109.577 10.299C109.99 10.2103 110.382 10.0492 110.737 9.8232C111.083 9.60199 111.37 9.30049 111.572 8.94482C111.789 8.53952 111.895 8.08561 111.882 7.62725C111.906 7.1614 111.793 6.6987 111.557 6.29505C111.328 5.94916 111.016 5.66497 110.649 5.46791C110.237 5.26311 109.796 5.12238 109.341 5.05068C108.891 4.96439 108.433 4.92027 107.974 4.91892H104.059L104.088 10.4454ZM104.088 21.1689H109.26C109.714 21.1701 110.168 21.121 110.612 21.0225C111.053 20.9331 111.472 20.7591 111.845 20.5101C112.218 20.2664 112.529 19.9408 112.754 19.5586C112.997 19.1222 113.117 18.6292 113.101 18.1312C113.121 17.6058 112.959 17.0895 112.643 16.6672C112.333 16.2873 111.932 15.9904 111.476 15.8035C111.003 15.6081 110.506 15.4728 109.998 15.4009C109.497 15.3303 108.991 15.2936 108.484 15.2911H104.125L104.088 21.1689Z" fill="url(#paint0_linear_119_4511)"/>
</g>
<defs>
<linearGradient id="paint0_linear_119_4511" x1="0" y1="13" x2="202" y2="13" gradientUnits="userSpaceOnUse">
<stop stop-color="#90CEA1"/>
<stop offset="0.56" stop-color="#3CBEC9"/>
<stop offset="1" stop-color="#00B3E5"/>
</linearGradient>
<clipPath id="clip0_119_4511">
<rect width="202" height="26" fill="white"/>
</clipPath>
</defs>
</svg>
